<svg xmlns="http://www.w3.org/2000/svg" viewBox="0 0 143.33 80.77"><title>Asset 5</title><g id="Layer_2" data-name="Layer 2"><g id="Layer_1-2" data-name="Layer 1"><path d="M117,67.2c-21.06,2-63.75,1.53-87.41,1.53-14.74,0-23.27-19.58-13.34-30.37,7.63-8.3,21-13.08,29.62-2,3.87-24.68,20.32-25.58,29.43-23.78,13.88,2.73,19.08,11.93,22.3,27.06,11.6-13.38,30.79-5.95,33.3,7.14C133.23,58.79,125.08,66.46,117,67.2Z" style="fill:#d93542"/><path d="M117,67.2c-21.06,2-63.75,1.53-87.41,1.53-14.74,0-23.27-19.58-13.34-30.37,7.63-8.3,21-13.08,29.62-2,3.87-24.68,20.32-25.58,29.43-23.78,13.88,2.73,19.08,11.93,22.3,27.06,11.6-13.38,30.79-5.95,33.3,7.14C133.23,58.79,125.08,66.46,117,67.2Z" style="fill:none;stroke:#d93542;stroke-linecap:round;stroke-linejoin:round;stroke-width:24px"/><path d="M117,66.92c-2.38.22-5,.94-7.89,1.1-2.5.14-5.19-.43-8-.33-2.55.1-5.18.94-7.92,1s-5.25,0-8,0-5.27.13-7.95.16-5.3-.05-8,0-5.32.34-8,.35-5.35-.11-8-.11-5.37-.6-7.95-.6c-2.76,0-5.42-.12-8-.13-2.82,0-5.49,0-7.94,0A15.69,15.69,0,0,1,21.8,66.6,18,18,0,0,1,16,61c-1.58-2.24-3.5-4.49-4.08-7.16s0-5.57.65-8.23a16,16,0,0,1,3.53-7.36,29.64,29.64,0,0,1,6.61-5.53,22.56,22.56,0,0,1,8.18-2.52,15.39,15.39,0,0,1,8.44.75,17.49,17.49,0,0,1,6.57,5.54A46.81,46.81,0,0,1,48,28a28.51,28.51,0,0,1,4-7.63,20,20,0,0,1,6.53-5.52,22.27,22.27,0,0,1,8.1-3.07,29.06,29.06,0,0,1,8.67.78,30.78,30.78,0,0,1,7.32,2,22.06,22.06,0,0,1,5.94,4.71,25.6,25.6,0,0,1,4.64,6c1.09,2.09,1.6,4.61,2.4,7.17a71.52,71.52,0,0,1,2,7,20.34,20.34,0,0,1,6.42-5.16,19,19,0,0,1,8.27-1.75A20.28,20.28,0,0,1,120.69,34a20,20,0,0,1,6.84,5.08,17,17,0,0,1,3.83,7.63c.66,3.45-.35,6.51-1.17,9.18-1,3.18-2.15,6.2-4.43,8.09C123.29,66,120,66.64,117,66.92Z" style="fill:none;stroke:#fff;stroke-linecap:round;stroke-linejoin:round;stroke-width:3.5px"/></g></g></svg>