<svg xmlns="http://www.w3.org/2000/svg" viewBox="0 0 178.66 76.15"><title>Asset 4</title><g id="Layer_2" data-name="Layer 2"><g id="Layer_1-2" data-name="Layer 1"><g style="opacity:0.35000000000000003"><path d="M20.13,73.92c2.66,0,5.37.45,8.13.45s5.38-.92,8.13-.92,5.39.81,8.13.81,5.4-.45,8.13-.45S58,74,60.76,74s5.42-.43,8.13-.43,5.43-.07,8.13-.07,5.43.78,8.13.78,5.44-.09,8.13-.09,5.45.12,8.13.12,5.46.11,8.13.11,5.47-.67,8.13-.67,5.49.14,8.13.14c2.8,0,5.51.3,8.12.3,2.83,0,5.54-.64,8.13-.64,2.87,0,5.59.09,8.12.09a33.74,33.74,0,0,0,8-.6,28.19,28.19,0,0,0,7.55-2.86,23.87,23.87,0,0,0,5.86-5.49,21.55,21.55,0,0,0,4.08-6.82A20.9,20.9,0,0,0,176.89,50a22.43,22.43,0,0,0-1.66-7.88,27.23,27.23,0,0,0-4.4-6.77A32.7,32.7,0,0,0,158.35,26c-2.46-1-5.2-.86-7.74-1.15a25.26,25.26,0,0,0-7.68.11,22,22,0,0,0-13.28,7.48,29,29,0,0,0-3.83,7.14,77.44,77.44,0,0,0-4.48-7.45c-1.52-2.41-2.37-5.26-4.09-7.41a75.45,75.45,0,0,0-5.66-6.29c-2-2-4.52-3.51-6.66-5.19a65.1,65.1,0,0,0-7-4.64,54,54,0,0,0-7.53-3.63c-2.78-1.13-5.31-2.56-7.87-3-3-.53-5.85.15-8.35.63A39.93,39.93,0,0,0,67,4.69c-2.32.92-4.78,1.56-6.92,2.92A39.65,39.65,0,0,0,54,12a40.85,40.85,0,0,0-4.62,6,41.7,41.7,0,0,0-4,6.39,47.32,47.32,0,0,0-2.2,7.19,56.2,56.2,0,0,0-1.74,7.65A35.75,35.75,0,0,0,34.85,34a23.71,23.71,0,0,0-7.64-2.94,20.69,20.69,0,0,0-8.18.72c-2.71.73-4.9,2.51-7,4C9.64,37.53,7.13,39,5.75,41a23.37,23.37,0,0,0-3.08,8.13A21.38,21.38,0,0,0,2,57.81a21.33,21.33,0,0,0,3.65,7.9,19.65,19.65,0,0,0,6.34,5.79A16.17,16.17,0,0,0,20.13,73.92Z" style="fill:none;stroke:#fff;stroke-linecap:round;stroke-linejoin:round;stroke-width:3.5px"/></g></g></g></svg>