<svg xmlns="http://www.w3.org/2000/svg" viewBox="0 0 221.37 125.47"><title>Asset 3</title><g id="Layer_2" data-name="Layer 2"><g id="Layer_1-2" data-name="Layer 1"><path d="M44.63,113.47H171.69c26.92,0,39-10.1,37.57-29.36-1-14.09-23.48-26.61-39.66-13.57,16.34-43.68-34.33-54.64-48.16-32.3C115.36,11.15,92.82,8.7,78.67,14.7c-16.81,7.13-21.1,21.85-15.29,42.88-18.31-18.31-43.62.53-48.07,11.64C5.59,93.47,17.86,113.47,44.63,113.47Z" style="fill:#d93542"/><path d="M44.63,113.47H171.69c26.92,0,39-10.1,37.57-29.36-1-14.09-23.48-26.61-39.66-13.57,16.34-43.68-34.33-54.64-48.16-32.3C115.36,11.15,92.82,8.7,78.67,14.7c-16.81,7.13-21.1,21.85-15.29,42.88-18.31-18.31-43.62.53-48.07,11.64C5.59,93.47,17.86,113.47,44.63,113.47Z" style="fill:none;stroke:#d93542;stroke-linecap:round;stroke-linejoin:round;stroke-width:24px"/><path d="M44.63,113.88c2.55,0,5.2-.13,7.94-.13l7.94,0c2.59,0,5.24-.12,7.94-.12s5.25-.57,7.94-.57,5.26.15,7.94.15,5.27.32,7.94.32,5.28-.5,7.94-.5,5.29.46,7.94.46,5.3-.39,7.94-.39,5.31.22,7.94.22,5.32.6,7.95.6,5.33-.43,7.94-.43,5.34-.45,7.94-.45l7.95,0c2.72,0,5.37.08,7.94.08,2.74,0,5.39.66,7.94.66,2.79,0,5.42-.42,7.89-.64a59.2,59.2,0,0,0,7.73-1.55,41.81,41.81,0,0,0,7.58-2.05,25.73,25.73,0,0,0,6.52-4.29,20.19,20.19,0,0,0,5.05-5.87A23.31,23.31,0,0,0,209.36,92c.38-2.43-.09-5.09-.3-7.92a16.07,16.07,0,0,0-2.83-7.66,23.19,23.19,0,0,0-5.57-6.12,27.58,27.58,0,0,0-7.28-4.17,26.67,26.67,0,0,0-8.31-1.3c-2.72,0-5.38.92-8.1,1.89a24.29,24.29,0,0,0-7.38,3.79,52.17,52.17,0,0,0,1.87-7.71c.6-2.79,1.65-5.32,1.68-7.78A30.38,30.38,0,0,0,172,47.18a25.5,25.5,0,0,0-3.1-7.28,25.31,25.31,0,0,0-5.07-6.09A28.23,28.23,0,0,0,157,29.66a31.74,31.74,0,0,0-7.6-2.31,33.23,33.23,0,0,0-8-.54,30.25,30.25,0,0,0-7.65,2.12,25.3,25.3,0,0,0-7.09,3.44,23.61,23.61,0,0,0-5.39,6.22,51.18,51.18,0,0,0-2.28-8.1,33.51,33.51,0,0,0-4.22-6.86c-1.69-2.32-3-4.79-5.09-6.35a27.56,27.56,0,0,0-7.25-3.83,30.13,30.13,0,0,0-8-1.62,33.54,33.54,0,0,0-8.05.86,33.45,33.45,0,0,0-7.65,2.36A34.49,34.49,0,0,0,71.43,19a25.57,25.57,0,0,0-5.9,6,25.17,25.17,0,0,0-3.06,7.76,32.71,32.71,0,0,0-1.15,8.24A49.56,49.56,0,0,0,62,49.26a67.09,67.09,0,0,0,1.27,8.19,25.92,25.92,0,0,0-6.57-4.59A23.62,23.62,0,0,0,49.07,50a26,26,0,0,0-8.19.39,33,33,0,0,0-7.7,2.71A40.89,40.89,0,0,0,26,57a39.05,39.05,0,0,0-5.83,5.72C18,65,16.25,67.17,15.42,69.26A48.44,48.44,0,0,0,13,77a38.88,38.88,0,0,0-1.11,8,31.27,31.27,0,0,0,.83,8.13,26.58,26.58,0,0,0,3.36,7.47,25.94,25.94,0,0,0,5.49,6.07,29.57,29.57,0,0,0,7.1,4,36.72,36.72,0,0,0,7.82,2.32A47.34,47.34,0,0,0,44.63,113.88Z" style="fill:none;stroke:#fff;stroke-linecap:round;stroke-linejoin:round;stroke-width:3.5px"/><path d="M62.37,56.72c1.49,1.71,3.67,3.13,5.81,5.35a40.19,40.19,0,0,1,4.92,6.14,55.12,55.12,0,0,1,3.55,7.42,28.91,28.91,0,0,1,4-7.15A29.76,29.76,0,0,1,86,62.78a25.77,25.77,0,0,1,7.09-3.35,20.22,20.22,0,0,1,7.71-1,19.46,19.46,0,0,1,7.51,2,25.67,25.67,0,0,1,6.23,4.68,37.32,37.32,0,0,1,5.12,5.89" style="fill:none;stroke:#fff;stroke-linecap:round;stroke-linejoin:round;stroke-width:3.5px"/><path d="M124.92,77.07c1.35-.1,2.08.52,2.18,1.35A2.29,2.29,0,0,1,125,81a2.54,2.54,0,0,1-2.18-2.08A2.22,2.22,0,0,1,124.92,77.07Z" style="fill:#fff"/></g></g></svg>