<svg xmlns="http://www.w3.org/2000/svg" viewBox="0 0 510.57 510.57"><title>Asset 5 1</title><g id="Layer_2" data-name="Layer 2"><g id="Layer_1-2" data-name="Layer 1"><circle cx="255.28" cy="255.28" r="243.28" style="fill:#d93542"/><circle cx="255.28" cy="255.28" r="243.28" style="fill:none;stroke:#d93542;stroke-linecap:round;stroke-linejoin:round;stroke-width:24px"/><path d="M498.72,255.28c0,2.66,0,5.33-.07,8s-.41,5.31-.58,7.95-.5,5.29-.76,7.93-.77,5.26-1.11,7.88-.8,5.24-1.23,7.86-.91,5.22-1.43,7.82-1.16,5.17-1.76,7.75-1,5.23-1.64,7.79-1.37,5.13-2.13,7.67-1.78,5-2.63,7.51-1.72,5-2.66,7.49-1.55,5.1-2.56,7.55-1.73,5-2.83,7.46S475,360.67,473.8,363s-2.41,4.74-3.66,7.08-2.93,4.45-4.26,6.74-2.88,4.45-4.28,6.71-2.37,4.79-3.84,7-3.55,4-5.1,6.15-2.71,4.59-4.33,6.69-3,4.4-4.69,6.45-3.9,3.65-5.65,5.65-3.63,3.86-5.44,5.8-3.48,4-5.35,5.88-3.57,3.94-5.51,5.76-3.88,3.62-5.88,5.38-4.07,3.41-6.12,5.1-4.1,3.37-6.21,5-4.47,2.88-6.62,4.43-4,3.61-6.16,5.09-4.78,2.38-7,3.79-4.54,2.74-6.84,4.07-4.7,2.45-7,3.7-4.59,2.65-7,3.83-4.73,2.38-7.15,3.48-4.83,2.18-7.28,3.2-4.78,2.35-7.27,3.28-5.19,1.22-7.71,2.08-4.93,2-7.47,2.75-5.18,1.14-7.75,1.83-5.1,1.42-7.69,2-5.16,1.18-7.77,1.69-5.21.92-7.84,1.35-5.18,1.18-7.82,1.53-5.3.2-8,.46-5.21,1.24-7.87,1.41-5.33-.41-8-.33-5.29,0-7.95,0-5.32.54-8,.45-5.29-.65-7.93-.82-5.28-.48-7.92-.74-5.27-.62-7.89-1-5.32-.29-7.93-.72-5.28-.7-7.87-1.21-5.1-1.55-7.68-2.15-5.17-1.2-7.72-1.89-5.33-.68-7.87-1.45-5.06-1.65-7.57-2.5-4.86-2.2-7.34-3.13-5.06-1.65-7.51-2.66-4.89-2.1-7.3-3.2-4.55-2.79-6.93-4-5-1.8-7.38-3-4.38-3-6.68-4.37-4.68-2.51-6.93-3.91-4.76-2.42-7-3.9-4.31-3.13-6.46-4.67-4.19-3.28-6.29-4.89-3.86-3.67-5.91-5.35-4.43-3-6.42-4.73-3.88-3.62-5.82-5.44-4.15-3.35-6-5.23-3.78-3.75-5.59-5.69-3.43-4.07-5.18-6.07-3.66-3.87-5.35-5.92-2.92-4.47-4.54-6.57-3.12-4.29-4.67-6.45-3-4.35-4.51-6.56-3.24-4.22-4.65-6.48-2.61-4.62-3.94-6.92-2.61-4.62-3.87-7-2-4.91-3.22-7.29-3.06-4.42-4.16-6.84-2-4.93-3-7.38-1.54-5.09-2.48-7.58-1.83-5-2.68-7.49-2.26-4.84-3-7.39-1.2-5.18-1.88-7.75-1-5.2-1.63-7.79-1-5.19-1.52-7.8-1.26-5.15-1.69-7.78-.68-5.25-1-7.89-.83-5.23-1.08-7.88-.13-5.3-.3-8-1.14-5.25-1.22-7.91,0-5.31,0-8,.15-5.33.24-8,0-5.33.18-8,1.2-5.24,1.46-7.87.46-5.29.81-7.91.63-5.27,1.06-7.88.28-5.35.79-8,1.86-5,2.46-7.62,1.18-5.17,1.86-7.73.66-5.34,1.43-7.87,2.19-4.88,3-7.39,1.82-5,2.75-7.47,1.71-5,2.73-7.48,2.09-4.88,3.19-7.3,2.38-4.75,3.55-7.12,2-4.92,3.29-7.26,2.74-4.56,4.07-6.85,2.64-4.61,4-6.86,3.12-4.3,4.59-6.51,2.94-4.41,4.49-6.57,2.88-4.47,4.5-6.57S65.59,103,67.28,101s3-4.39,4.79-6.39,3.71-3.81,5.52-5.75,3.85-3.67,5.72-5.54,3.52-4,5.46-5.82,4-3.48,6-5.23,4-3.56,6-5.24,4.43-3,6.54-4.57,4.08-3.4,6.24-4.95,4.57-2.72,6.77-4.19,4.47-2.84,6.72-4.24,4.47-2.83,6.77-4.16,4.44-2.92,6.78-4.17,4.61-2.64,7-3.81,4.78-2.31,7.2-3.41,4.79-2.31,7.24-3.33,4.94-2,7.43-2.89,5-1.88,7.49-2.73,5.11-1.46,7.65-2.23,5-1.76,7.59-2.45,5.15-1.31,7.74-1.91,5.27-.75,7.88-1.26,5.23-.85,7.86-1.28,5.16-1.34,7.8-1.69,5.34.1,8-.16,5.25-.66,7.91-.83,5.27-.57,7.94-.66,5.3.24,8,.24,5.33-.7,8-.62,5.3.64,7.94.81,5.34,0,8,.23,5.29.65,7.91,1,5.22,1.1,7.83,1.52,5.19,1.11,7.79,1.63,5.28.69,7.86,1.29,5.21,1.11,7.76,1.8,5.13,1.43,7.66,2.2,4.86,2.24,7.36,3.1,5.29,1,7.77,1.91,4.71,2.53,7.16,3.55,4.9,2,7.32,3.12,5.1,1.66,7.47,2.83,4.67,2.56,7,3.81,4.63,2.61,6.92,3.94,4.55,2.74,6.8,4.14,4.34,3.06,6.55,4.54,4.42,2.93,6.58,4.48,4.14,3.32,6.24,4.94,4.6,2.75,6.65,4.43,3.83,3.7,5.82,5.45,4,3.52,5.91,5.34,4,3.53,5.85,5.4,3.91,3.62,5.72,5.56,3.24,4.23,5,6.23,3.29,4.16,5,6.21,3.9,3.68,5.52,5.79,3.24,4.22,4.78,6.38,2.37,4.81,3.85,7,3.66,4,5.06,6.21,2.42,4.75,3.75,7,2.48,4.69,3.73,7,2.64,4.61,3.81,7,2,4.94,3.05,7.36,2.61,4.65,3.63,7.1,1.9,5,2.83,7.45,2.21,4.85,3.07,7.37,1.48,5.11,2.25,7.65,1.68,5,2.36,7.62.87,5.25,1.48,7.85,1.23,5.16,1.74,7.77,1.09,5.2,1.52,7.82.62,5.27,1,7.91,1,5.23,1.27,7.88.14,5.31.31,8,.61,5.28.7,7.94S498.72,252.62,498.72,255.28Z" style="fill:none;stroke:#fff;stroke-linecap:round;stroke-linejoin:round;stroke-width:3.5px"/><g style="opacity:0.5"><path d="M255.87,41c0,4,.09,4,.09,8s-.62,4-.62,8,.36,4,.36,8-.35,4-.35,8,.18,4,.18,8,.26,4,.26,8-.28,4-.28,8,.4,4,.4,8-.29,4-.29,8,0,4,0,8-.2,4-.2,8-.21,4-.21,8,0,4,0,8,0,4,0,8,.12,4,.12,8-.08,4-.08,8,.48,4,.48,8-.59,4-.59,8,.79,4,.79,8-.07,4-.07,8-.2,4-.2,8-.24,4-.24,8,.24,4,.24,8,.06,4,.06,8-.2,4-.2,8-.12,4-.12,8-.21,4-.21,8-.07,4-.07,8,0,4,0,8-.09,4-.09,8,.3,4,.3,8,0,4,0,8-.21,4-.21,8,0,4,0,8,.39,4,.39,8,.38,4,.38,8-.14,4-.14,8,0,4,0,8-.44,4-.44,8-.22,4-.22,8,.56,4,.56,8-.69,4-.69,8,.51,4,.51,8,.34,4,.34,8-.65,4-.65,8-.13,4-.13,8,.25,4,.25,8,.31,4,.31,8,0,4,0,8-.08,4-.08,8,0,4,0,8-.39,4-.39,8,.67,4,.67,8-.64,4-.64,8" style="fill:none;stroke:#fff;stroke-linecap:round;stroke-linejoin:round;stroke-width:4px"/></g><g style="opacity:0.5"><path d="M31.62,255.2c4,0,4-.09,8-.09s4,.62,8,.62,4-.36,8-.36,4,.35,8,.35,4-.18,8-.18,4-.26,8-.26,4,.28,8,.28,4-.4,8-.4,4,.29,8,.29,4,0,8,0,4,.2,8,.2,4,.21,8,.21,4,0,8,0h8c4,0,4-.12,8-.12s4,.08,8,.08,4-.48,8-.48,4,.59,8,.59,4-.79,8-.79,4,.07,8,.07,4,.2,8,.2,4,.24,8,.24,4-.24,8-.24,4-.06,8-.06,4,.2,8,.2,4,.12,8,.12,4,.21,8,.21,4,.07,8,.07h8c4,0,4,.09,8,.09s4-.3,8-.3,4,0,8,0,4,.21,8,.21,4,0,8,0,4-.39,8-.39,4-.38,8-.38,4,.14,8,.14h8c4,0,4,.44,8,.44s4,.22,8,.22,4-.56,8-.56,4,.69,8,.69,4-.51,8-.51,4-.34,8-.34,4,.65,8,.65,4,.13,8,.13,4-.25,8-.25,4-.31,8-.31,4,0,8,0,4,.08,8,.08,4,0,8,0,4,.39,8,.39,4-.67,8-.67,4,.64,8,.64,4,0,8,0,4,.19,8,.19" style="fill:none;stroke:#fff;stroke-linecap:round;stroke-linejoin:round;stroke-width:4px"/></g><g style="opacity:0.5"><path d="M287.61,40.69c3.46,2,2.39,1.61,6.66,4.47,1.87,1.25,4.22,2.58,6.71,4.38,2,1.42,4.12,3,6.42,4.79,2,1.53,4.15,3.12,6.34,4.9,2,1.6,3.49,4,5.6,5.77,2,1.67,4.5,2.82,6.54,4.67s3.43,4,5.42,5.92,3.88,3.56,5.81,5.49,3.91,3.56,5.78,5.54,3.62,3.86,5.43,5.89,3.53,3.95,5.29,6,3,4.37,4.72,6.48,3.25,4.18,4.88,6.33,3.22,4.2,4.79,6.4,3.29,4.17,4.79,6.41,3,4.42,4.39,6.7,2.34,4.78,3.7,7.11,2.76,4.53,4,6.89,2.51,4.67,3.73,7.07,2.46,4.71,3.59,7.14,2.73,4.61,3.78,7.08,1.91,5,2.88,7.48,1.58,5.09,2.46,7.63,2.19,4.88,3,7.45,1.1,5.23,1.81,7.82,1.74,5,2.37,7.66,1,5.24,1.51,7.87.43,5.32.87,8,1.26,5.18,1.62,7.84,1.1,5.23,1.37,7.91.46,5.31.64,8,.23,5.32.31,8-.53,5.32-.53,8,.27,5.31.2,7.92.21,5.33.06,7.94-.66,5.28-.89,7.89-.23,5.32-.55,7.92-.92,5.24-1.32,7.82-1.36,5.15-1.85,7.72-.48,5.32-1.05,7.87-1.12,5.2-1.77,7.73-1.6,5.07-2.34,7.57-1.87,5-2.7,7.45-1.6,5.05-2.51,7.51-1.4,5.15-2.39,7.57-2.37,4.76-3.44,7.15-1.87,5-3,7.34-3.06,4.4-4.29,6.7-2.28,4.8-3.6,7.06-2.66,4.6-4,6.81-3,4.39-4.44,6.56-2.94,4.42-4.47,6.53-3.18,4.26-4.77,6.32-3.42,4.06-5.08,6.07-3,4.42-4.74,6.37-3.78,3.76-5.56,5.66-3.39,4.14-5.22,6-4.1,3.44-6,5.21-3.69,3.89-5.61,5.6-4.55,2.92-6.52,4.56-4.06,3.5-6.07,5.07c-2.17,1.7-4.22,3.36-6.25,4.85-2.25,1.65-4.13,3.59-6.17,5-2.36,1.62-4.51,3.2-6.54,4.48-2.57,1.63-5,2.79-6.9,3.91a58,58,0,0,1-7,3.65" style="fill:none;stroke:#fff;stroke-linecap:round;stroke-linejoin:round;stroke-width:4px"/></g><g style="opacity:0.5"><path d="M223.5,40.55a69.22,69.22,0,0,0-6.94,4.15c-1.92,1.19-3.8,3.27-6.37,5-2,1.37-4.44,2.61-6.8,4.32-2,1.47-4.41,2.8-6.67,4.53-2,1.56-3.84,3.61-6,5.38-2,1.64-4.12,3.29-6.22,5.11s-4.08,3.38-6.11,5.24-3.7,3.81-5.67,5.72-3.9,3.62-5.81,5.58-3.81,3.73-5.66,5.74-3.21,4.27-5,6.33-3.53,4-5.25,6.1-3.87,3.75-5.52,5.91-3,4.41-4.62,6.62-2.56,4.72-4.07,7-3,4.43-4.41,6.73-3.52,4.12-4.88,6.47-2.63,4.67-3.91,7.06-1.73,5.12-2.94,7.55-3,4.51-4.08,7-2.19,4.89-3.23,7.39-2.12,4.92-3.08,7.46-1.12,5.28-2,7.85-2,5-2.82,7.55-1.2,5.21-1.89,7.83-1.42,5.15-2,7.79-1.52,5.14-2,7.8-.9,5.27-1.33,8-.46,5.33-.8,8-.87,5.28-1.13,8-.11,5.35-.28,8.06-.54,5.32-.63,8S95,257.1,95,259.82s-.11,5.34,0,8,.52,5.31.67,7.93.46,5.3.7,7.92.12,5.35.44,8,1.22,5.21,1.63,7.8.18,5.38.68,8,1.79,5.07,2.37,7.63,1.06,5.21,1.73,7.75,1.44,5.12,2.19,7.63,1.47,5.11,2.31,7.6,2,4.91,3,7.37,1.8,5,2.81,7.42,1.55,5.13,2.64,7.52,2.16,4.88,3.34,7.23,2.45,4.74,3.71,7,2.83,4.53,4.16,6.79,2.51,4.72,3.92,6.93,3.63,4,5.11,6.15,2.53,4.73,4.08,6.85,3.46,4.06,5.08,6.12,3.43,4.07,5.11,6.08,3.12,4.35,4.86,6.3,3.79,3.77,5.58,5.66,3.53,4,5.38,5.85,3.88,3.69,5.78,5.46,4,3.63,5.9,5.33,4,3.63,6,5.26,4.56,2.93,6.58,4.49c2.19,1.69,4.11,3.54,6.16,5,2.27,1.64,4.65,2.86,6.72,4.25,2.38,1.61,4.4,3.37,6.44,4.65,2.58,1.62,5,2.71,7,3.82,4.42,2.53,3.18,2.45,6.77,4.15" style="fill:none;stroke:#fff;stroke-linecap:round;stroke-linejoin:round;stroke-width:4px"/></g><path d="M390.93,213.12l-7-57.86L370.18,71.35l-18.87-1.2-5.56,30.76L315.34,71.18H127.85V213.12H54.55l-.7,158.12s118.39-8.77,202.17-8.77c77.32,0,199.59,9.31,199.59,9.31l.74-158.67Z" style="fill:#d93542"/><path d="M167.32,92.23c-2.82,3.18-4.53,6.85-6.37,10.53-1.1,2.08-2.45,4.28-3.79,6.37-1.59,2.45-3.43,2.2-4.53-.49-2.45-5.51-5.39-10.77-8.32-16-.61-1-1.47-2-2-2.94-1.1.49-.73,1.1-.73,1.59.73,9.67,1.59,19.34,1.35,29.13-.24,8.69-.61,17.5-.61,26.19,0,3.55.37,7,.49,10.53.12,6.24.12,12.49.25,18.61a13.47,13.47,0,0,1-.25,2.2,2,2,0,0,1-3.92-.61c.12-3.92.49-7.59.49-11.51,0-4.16-.37-8.57-.37-12.85,0-11.14-.37-22.16.37-33.29a38.07,38.07,0,0,0,0-7.47c-.37-7-.61-13.83-1.22-20.81-.24-2.57-1-5.26-1.47-7.83q-.55-2.2,1.47-2.57h1.1a3.14,3.14,0,0,1,3.55,1.84c3.79,7.1,7.59,14.08,11.51,21.18a3.65,3.65,0,0,0,1,.86,29.37,29.37,0,0,0,2.2-3.18l7.34-15.06a16.53,16.53,0,0,0,1-2.94,3.18,3.18,0,0,1,1.71-2.2c1.22-.49,1.22-.49,3.79.12-.86,5-.61,10-.73,14.93-.12,8.45,0,16.89-.12,25.34-.25,6.85.37,13.83-.49,20.69a19.73,19.73,0,0,0,.12,5.39,116.1,116.1,0,0,1,0,17.26c-.25,3.92-.12,8-.25,11.87a14.73,14.73,0,0,1,0,2.33,2.63,2.63,0,0,1-2.08,2,2.21,2.21,0,0,1-2-2c0-.73.12-1.47.12-2.2a225.64,225.64,0,0,0,.49-28.77v-3.18c.12-5,.12-9.92.24-15.06.25-5.51.37-11.26.49-16.77.12-3.43-.12-6.85-.12-10.16V97C167.07,95.29,167.2,93.7,167.32,92.23Z" style="fill:#fff"/><path d="M183.11,155.88c-.37-7.22-.61-15.91-1.1-24.48-.12-4.16-.49-8.32-.73-12.49a20.07,20.07,0,0,0-.24-2.69,35.87,35.87,0,0,1-.37-5c.49-4.65,1-9.18,1.71-13.83a30.8,30.8,0,0,1,4.53-10.65,10.84,10.84,0,0,1,4.65-3.92c.61-.24,1.35,0,1.59-.49,1.84-2.2,3.79-1.35,5.88-.73a29.11,29.11,0,0,1,7,2.94c4.28,2.82,6.12,7.1,6.24,12.24.24,9.3.24,18.48.24,27.66.12,9.92.25,19.83,0,29.62a87.16,87.16,0,0,1-2.33,17.87c-1.47,5.75-6.73,10.16-12.12,9.67-4.16-.49-8-1.71-11.14-4.77a11,11,0,0,1-3.79-8.45Zm25.22-55.21c.12-1.47,0-3.06,0-4.53a9,9,0,0,0-3.67-7.47,35.66,35.66,0,0,0-5.51-3.18,2.37,2.37,0,0,0-1.59,0c-1.22.37-2.45,1-3.55,1.35a6.94,6.94,0,0,0-4.16,2.82,17.32,17.32,0,0,0-3.43,7.83c-1.47,6.73-2.69,13.59-1.35,20.56.12.86,0,1.84.12,2.69.24,5.88.61,11.75,1,17.63s.73,11.63.73,17.63c.12,3.67,0,7.22,0,10.89,0,4.53,2.33,7.22,5.75,8.81a19,19,0,0,0,5.75,1.47c1.59.25,3.18.12,4.28-1.1,2.45-2.57,4.41-5.39,4.77-9.06.49-5.51,1.84-10.89,1.35-16.52a4.58,4.58,0,0,1-.12-1.35c0-5.39.73-10.77,0-16.16V120.51c.12-3.92.24-8,.12-12C208.81,106.06,208.45,103.37,208.32,100.68Z" style="fill:#fff"/><path d="M221.62,181.34a15,15,0,0,0-.73-2.69,5.58,5.58,0,0,1,.37-3.92c2-4.41,2.94-9.43,3.92-14.32,2.2-8.2,3.67-16.52,6.37-24.73,1.47-4.77,2.69-9.67,4.16-14.69.73-2.69,2-5.63,2.82-8.57,1.59-5.39,2.94-10.65,4.41-16,.37-2.08,1.1-4.28,1.59-6.49a21.43,21.43,0,0,0,.74-3.67,19,19,0,0,0-2.57-.49,24.13,24.13,0,0,0-4.16.49c-4.53,1.1-8.94.73-13.34.86a2.63,2.63,0,0,1-2.57-1.71c-.61-1.1,0-2.69.86-2.69a2.51,2.51,0,0,1,1.35,0c3.79,1,7.47.73,11.38.25,2.08-.25,4.28-.25,6.37-.61,1.47-.12,3.18-.61,4.65-.86,1.71-.24,2.33.12,3.06,1.35-.73,3.18-1.71,6.61-2.45,9.79-1.35,4.53-2.57,9.18-3.92,13.46a81.65,81.65,0,0,1-2.82,9.3c-2,5.63-3.18,11.75-5.14,17.63-2.33,8.08-4.41,16.28-6.24,24.48-1.1,4.77-2.08,9.18-3.3,13.83a22.91,22.91,0,0,1-.86,2.69c-1.22,3.67-.73,4.65,2.08,4.53,4.77,0,8.69-.12,13.34-.49,2.08-.12,4.16.37,6.49-.37.49-.24,1.22.49,1.59,1,.61.61.37,1.59,0,2.45s-.86,1.22-1.59,1.1a37.54,37.54,0,0,0-11.75.37c-2.33.37-4.65-.12-6.86-.12-1.22,0-2.45.12-3.67.12A4.5,4.5,0,0,1,221.62,181.34Z" style="fill:#fff"/><path d="M265.54,82.56c1.59-.12,2.45.61,2.57,1.59a2.7,2.7,0,0,1-2.45,3.06,3,3,0,0,1-2.57-2.45A2.62,2.62,0,0,1,265.54,82.56Zm-1.35,96.82c0-4.9-.12-10.4-.25-14.93a124.74,124.74,0,0,1,.73-14.69,135.19,135.19,0,0,0,.49-21.18c-.37-5.63,0-12.49-.37-18.12-.24-4,.12-10.16-.86-15.55a2.12,2.12,0,0,1,.12-1.22,2,2,0,0,1,2.82-.61,4,4,0,0,1,1.22,2.2,22.45,22.45,0,0,1,.24,4l.37,16.16c.25,8,.37,18.12.25,24.6-.12,5.51-.73,10.89-1,15.55-.12,2.45,0,4.9,0,9.18,0,3.43.37,8,.49,11.38a14.74,14.74,0,0,1-.12,2.33,1.74,1.74,0,0,1-2.45,1.59A10.3,10.3,0,0,1,264.2,179.38Z" style="fill:#fff"/><path d="M283.74,81.83c3.06-.61,3.79-.12,3.92,2.57.24,6.73.49,13.46.12,20.07a64.73,64.73,0,0,0-.12,10.89,57.85,57.85,0,0,1-.86,13c-.73,5.14-.25,10.16-.12,15.3.12,3.79.37,7.59.49,11.38.12,5.39.25,10.77.49,16.16v4.41c1.59,1.22,3.3.49,4.77.12a32,32,0,0,1,9.06-.73c1.22.12,2.45.24,3.67.49a4.28,4.28,0,0,1,1.59.61,2.12,2.12,0,0,1-.25,3.55,4.32,4.32,0,0,1-2.08.49,3.32,3.32,0,0,1-1.84-.37c-3.3-1.22-6.61-.73-9.91-.12l-6.86,1.47a2.62,2.62,0,0,1-2.69-3.06c1.35-5.63.49-11.26.61-16.89v-.49c.24-7.71-.49-15.42-.61-23.13,0-4.9.61-9.79.86-14.81.12-2.08.25-4.16.25-6.12l-.37-23c-.12-3.43-.12-6.73-.25-10C283.62,82.93,283.74,82.32,283.74,81.83Z" style="fill:#fff"/><path d="M315.11,81.83c3.06-.61,3.79-.12,3.92,2.57.25,6.73.49,13.46.12,20.07a64.84,64.84,0,0,0-.12,10.89,57.91,57.91,0,0,1-.86,13c-.73,5.14-.25,10.16-.12,15.3.12,3.79.37,7.59.49,11.38.12,5.39.24,10.77.49,16.16v4.41c1.59,1.22,3.3.49,4.77.12a32,32,0,0,1,9.06-.73c1.22.12,2.45.24,3.67.49a4.28,4.28,0,0,1,1.59.61,2.12,2.12,0,0,1-.25,3.55,4.33,4.33,0,0,1-2.08.49,3.31,3.31,0,0,1-1.84-.37c-3.3-1.22-6.61-.73-9.92-.12l-6.85,1.47A2.62,2.62,0,0,1,314.5,178c1.35-5.63.49-11.26.61-16.89v-.49c.25-7.71-.49-15.42-.61-23.13,0-4.9.61-9.79.86-14.81.12-2.08.24-4.16.24-6.12l-.37-23c-.12-3.43-.12-6.73-.24-10C315,82.93,315.11,82.32,315.11,81.83Z" style="fill:#fff"/><path d="M370,167.14c-6.73-1.35-12.85,1.1-19.34.73l-.74,3.06c-.49,2.33-.86,4.77-1.22,7.1a2,2,0,0,1-2.57,1.71,2.07,2.07,0,0,1-1.71-2.69l1.1-5.75c.61-3.18,1.1-6.49,1.71-9.67l1.59-9.67c1.1-7.71,2.33-15.42,3.43-23s2.2-14.81,3.06-22.16c.73-5.75,1.1-11.63,1.59-17.38a6.28,6.28,0,0,1,3.18-5.51,1.87,1.87,0,0,1,2.69.73,13,13,0,0,1,1.1,4.28,47.49,47.49,0,0,0,.86,10.16c.73,5.14,1.1,10.4,1.71,15.55,1,8.32,2.08,16.52,3.18,24.85l2.94,20.81c.37,2.33.86,4.65,1.35,7,.61,3.06,1.22,6.12,1.71,9.18a13.34,13.34,0,0,1,.12,2.2,2.12,2.12,0,0,1-2.2,1.84,2.24,2.24,0,0,1-2.2-1.84c-.37-2.69-.61-5.26-.86-8C370.38,169.71,370.13,168.61,370,167.14Zm-9.79-69c-.61,5.26-1,9.43-1.59,13.59-.49,3.06-1.22,6.12-1.71,9.18-.86,5.63-1.47,11.26-2.2,16.89-.73,5.14-1.71,10.28-2.33,15.42-.37,3.06-1.59,6-1,9.43a10.11,10.11,0,0,0,2.69,1,22.32,22.32,0,0,0,4-.12c3.55-.37,7-.73,10.65-1.1v-2.08c-.61-4.41-1.35-8.81-2-13.22-.86-6.37-1.84-12.73-2.69-19-.61-4.77-1.35-9.42-1.84-14.2-.37-4.28-.61-8.57-1.1-13A10.67,10.67,0,0,0,360.22,98.11Z" style="fill:#fff"/><path d="M73.94,273.34a34.77,34.77,0,0,0-.38,10.88,111.12,111.12,0,0,1,0,13.06c0,8.32,0,16.64-.13,24.83a26.74,26.74,0,0,1-.51,4.61,2,2,0,0,1-2.3,1.54,1.93,1.93,0,0,1-1.54-1.92c.13-4.1.13-8.19.26-12.16a14.45,14.45,0,0,0,.38-2.3V278.08c0-2.18.26-4.35.38-6.53,0-8.06,0-16.25-.77-24.32-.13-1.54-.13-3.07-.13-4.61a74,74,0,0,0-.38-14.08c-.13-.26.13-.51.26-1,2-1.92,4.74-2.18,7.3-2a53.85,53.85,0,0,1,7.94.9,36.12,36.12,0,0,0,10.5.38,22.86,22.86,0,0,1,2.94-.26,1.81,1.81,0,0,1,1.54,2.3c-.51,2.3-1.66,2.94-3.71,2.43a24.58,24.58,0,0,0-2.82-.38,53.25,53.25,0,0,1-11-.9,18.39,18.39,0,0,0-8.32.38,361.1,361.1,0,0,0,.38,37.25,8.45,8.45,0,0,0,6,1.15l5-.77c1.15-.13,2.43,0,2.94,1.28s-.26,2.43-.64,3.46C82.77,272.83,78.54,273.09,73.94,273.34Z" style="fill:#fff"/><path d="M105.94,302.78c-.38-7.55-.64-16.64-1.15-25.6-.13-4.35-.51-8.7-.77-13.06a20.93,20.93,0,0,0-.26-2.82,37.57,37.57,0,0,1-.38-5.25c.51-4.86,1-9.6,1.79-14.46a32.2,32.2,0,0,1,4.74-11.14,11.34,11.34,0,0,1,4.86-4.1c.64-.26,1.41,0,1.66-.51,1.92-2.3,4-1.41,6.14-.77a30.45,30.45,0,0,1,7.3,3.07c4.48,2.94,6.4,7.42,6.53,12.8.26,9.73.26,19.33.26,28.93.13,10.37.26,20.73,0,31a91.11,91.11,0,0,1-2.43,18.69c-1.54,6-7,10.62-12.67,10.11-4.35-.51-8.32-1.79-11.65-5a11.46,11.46,0,0,1-4-8.83Zm26.37-57.72c.13-1.54,0-3.2,0-4.74a9.35,9.35,0,0,0-3.84-7.81,37.26,37.26,0,0,0-5.76-3.33,2.48,2.48,0,0,0-1.66,0c-1.28.38-2.56,1-3.71,1.41a7.25,7.25,0,0,0-4.35,2.94,18.11,18.11,0,0,0-3.58,8.19c-1.54,7-2.82,14.21-1.41,21.5.13.9,0,1.92.13,2.82.26,6.14.64,12.29,1,18.43s.77,12.16.77,18.43c.13,3.84,0,7.55,0,11.39,0,4.74,2.43,7.55,6,9.21a19.82,19.82,0,0,0,6,1.54c1.66.26,3.33.13,4.48-1.15,2.56-2.69,4.61-5.63,5-9.47.51-5.76,1.92-11.39,1.41-17.28a4.8,4.8,0,0,1-.13-1.41c0-5.63.77-11.26,0-16.89V265.79c.13-4.1.26-8.32.13-12.54C132.81,250.69,132.43,247.87,132.3,245.06Z" style="fill:#fff"/><path d="M149.56,226.37a5.44,5.44,0,0,1,1.54-.64c1.66.13,2.18.77,2.3,2.43,0,1.28.13,2.82,0,4.1-.9,13.57.26,26.88.38,40.45,0,8.32.64,16.64.26,25-.26,4.22-.26,8.7-.26,12.93a20.76,20.76,0,0,0,1.41,7.94c1.41,3.58,3.71,5.89,6.78,6.91,3.71,1.41,7.3.51,10.37-1.92a7.53,7.53,0,0,0,2.43-6.27c-.26-5.63.77-10.88,1.28-16.38.38-4.22.64-8.7.9-12.8a31.4,31.4,0,0,0-.26-3.46c0-1.41-.13-2.94-.13-4.35.13-6,.38-12.16.26-18-.13-9.85-.38-19.71-.64-29.44a9.7,9.7,0,0,1,.13-3.33,2,2,0,0,1,2.18-1.41,1.92,1.92,0,0,1,1.66,1.79,13.92,13.92,0,0,1,.13,2.3c0,10.62.13,21.5.13,32.25,0,5.76-.26,11.52-.13,17.15a217,217,0,0,1-1.15,24.19,93.61,93.61,0,0,0-.38,10.5c.13,8.45-5.5,14.21-11.26,14a13.39,13.39,0,0,0-3.2,0c-4.1.26-7.3-2-10-5.38a28.86,28.86,0,0,1-1.66-2.56,13.25,13.25,0,0,1-2.3-7.68c.13-4.48,0-8.83.13-13.44.13-11.77-.13-23.81-.51-35.58-.38-10.62-.26-21.37-.38-32.25Z" style="fill:#fff"/><path d="M197.4,242.75c.13,3.46,0,6.66.38,10A104.85,104.85,0,0,1,198,269.5c-.13,6.14-.13,12.42-.77,18.56-1.15,11.52-.51,22.91-.26,34.43,0,.77.26,1.54.26,2.3a3.4,3.4,0,0,1-1.15,2.82c-.9.51-1.79.26-2.69.51a12.78,12.78,0,0,1-.51-2.56c-.13-8.06-.13-16.38-.13-24.45a42.42,42.42,0,0,1,.51-7c.64-5.63.77-11.13.9-16.77.13-4.35.38-8.58.51-12.93.13-8.83-1.15-17.53-1.79-26.24-.26-3.46-.26-7-.38-10.5a1.75,1.75,0,0,1,1.41-1.66l2.69-.38c.38.77.9,1.15.9,1.79,2.56,8.83,5.38,17.79,6.91,26.88,1.28,7.17,2.82,14.33,4.74,21.37,1.54,5.76,2.56,11.78,3.84,17.66a.47.47,0,0,0,.13.38c1.54,5.76,2.94,11.65,4,17.53a18.86,18.86,0,0,0,1,3.58c.9-.64.64-1.54.64-2.18.26-4,.51-7.94.64-11.9.26-4.48.26-9,.38-13.31,0-2,.26-4,.26-5.76.13-5.89.26-11.78.26-17.66,0-5.38-.51-10.62-.38-15.87.13-6.27.13-12.42-.26-18.69a6.8,6.8,0,0,1,.13-2.3,4.27,4.27,0,0,1,1.66-1.41,2.25,2.25,0,0,1,1.66,1.15,4.61,4.61,0,0,1,.38,2.3c0,4.35.13,8.58,0,12.93,0,6.4-.38,12.8-.13,19.07.64,8.06.13,16-.26,23.94V297c0,1.54-.13,2.94-.26,4.35l-.51,7.17a65.42,65.42,0,0,1-.64,10,23.21,23.21,0,0,0,.13,6.66,9.21,9.21,0,0,1-.64,4.61c-3.07.13-3.58,0-4.22-2.82-1.66-7.42-3.2-14.85-4.86-22.14-.51-2.82-1.54-5.5-2.18-8.32-2.94-13.44-5.63-26.88-8.58-40.32-.77-3.84-1.54-7.55-2.43-11.13C198.68,244.29,198.56,243,197.4,242.75Z" style="fill:#fff"/><path d="M239.47,327c-.26-.64-.64-1-.64-1.28.13-4.1.13-8.19.38-12.42.13-2.94.64-5.89.9-9,.13-2.82,0-5.5,0-8.06,0-2-.26-4-.13-6a131,131,0,0,0-.77-17.28c-.38-5.76-.13-11.78,0-17.66a68.62,68.62,0,0,0-.51-15.36c-.38-3.33-.38-6.66-.51-10.11-.13-1.79,1.28-3.2,2.18-4.61a1.84,1.84,0,0,1,1.79-.38c4.35,2.43,9.22,3.46,13.31,6,3.2,2.18,6.14,4.86,7.68,8.7a27.54,27.54,0,0,1,2,9.73c0,7,.26,14.08.26,21.38a7.21,7.21,0,0,1,0,1.66c-1,13.06-.77,26.11-.38,39.17.13,4.1-1.54,6.91-4.1,9.47-4.35,4.74-10.11,6.91-16.13,7.81a3.26,3.26,0,0,1-1.66-.26c-.77-.38-1.15-.9-1.66-1.15A11.53,11.53,0,0,0,239.47,327Zm3.71-3.46c.77.26,1.41.64,1.92.51a21.9,21.9,0,0,0,13.44-6.27,7.8,7.8,0,0,0,2.43-5.89v-4.1c-.13-5.89-.26-11.78-.13-17.66.13-5.38.64-10.5.9-15.87.13-1.79-.13-3.58-.13-5.5,0-1.66-.13-3.58-.13-5.38-.13-4.61-.26-9.34-.51-14.08-.38-7.42-3.84-12.67-10.11-15.49a41.63,41.63,0,0,0-5.5-2.3,24.82,24.82,0,0,0-2.82-.9,48.59,48.59,0,0,0-.13,7.42,212.92,212.92,0,0,1,.26,29.95,28,28,0,0,0,.38,7.3,61.42,61.42,0,0,1,.51,10.88v5c0,5.25.26,10.5-.26,15.87A88.81,88.81,0,0,0,243.18,323.51Z" style="fill:#fff"/><path d="M301.06,314.56c-7-1.41-13.44,1.15-20.22.77l-.77,3.2c-.51,2.43-.9,5-1.28,7.42a2.07,2.07,0,0,1-2.69,1.79,2.17,2.17,0,0,1-1.79-2.82l1.15-6c.64-3.33,1.15-6.78,1.79-10.11l1.66-10.11c1.15-8.06,2.43-16.13,3.58-24.06s2.3-15.49,3.2-23.17c.77-6,1.15-12.16,1.66-18.17a6.56,6.56,0,0,1,3.33-5.76,2,2,0,0,1,2.82.77,13.62,13.62,0,0,1,1.15,4.48c-.26,3.58.38,7,.9,10.62.77,5.38,1.15,10.88,1.79,16.25,1,8.7,2.18,17.28,3.33,26l3.07,21.76c.38,2.43.9,4.86,1.41,7.3.64,3.2,1.28,6.4,1.79,9.6a13.91,13.91,0,0,1,.13,2.3,2.22,2.22,0,0,1-2.3,1.92,2.35,2.35,0,0,1-2.3-1.92c-.38-2.82-.64-5.5-.9-8.32C301.44,317.24,301.18,316.09,301.06,314.56Zm-10.24-72.19c-.64,5.5-1,9.86-1.66,14.21-.51,3.2-1.28,6.4-1.79,9.6-.9,5.89-1.54,11.78-2.3,17.66-.77,5.38-1.79,10.75-2.43,16.13-.38,3.2-1.66,6.27-1,9.86a10.58,10.58,0,0,0,2.82,1,23.32,23.32,0,0,0,4.22-.13c3.71-.38,7.3-.77,11.14-1.15v-2.18c-.64-4.61-1.41-9.21-2-13.82-.9-6.66-1.92-13.31-2.82-19.84-.64-5-1.41-9.86-1.92-14.85-.38-4.48-.64-9-1.15-13.57C291.84,244.67,291.46,244,290.82,242.37Z" style="fill:#fff"/><path d="M319.26,229.57c-3.58-1.28-7,0-10.88.13-.26-.38-.77-.77-1.15-1.28-1.15-2.18-.77-2.94,1.79-3.2,6.53-.9,13.05.26,19.71.51,1.79,0,3.71.13,5.5.26,2,.26,2.69,1.54,1.79,3.33L334.61,231c-3.33-.9-6.78-1.92-10.5-1.15,0,3.07-.13,6-.13,9-.13,7-.13,14.08,0,21,.13,3.58.64,7.17.9,10.75.13,3.07.13,6.27,0,9.34a87.64,87.64,0,0,0,.26,16.38c.38,2.94,0,5.89,0,8.83,0,5.89.13,11.65.13,17.41a37.85,37.85,0,0,1-.77,6.53,1.81,1.81,0,0,1-2.3,1.66,2.19,2.19,0,0,1-1.79-2.43c.13-2.3.38-4.61.51-7l.38-10.75c.13-2.56.13-5.25.13-7.94,0-2.3,0-4.74-.13-7-.26-5.38-.77-10.88,0-16.38a30.21,30.21,0,0,0-.13-8.32c-1.15-7.3-.77-14.72-.9-22-.13-5.89-.38-11.9-.64-17.79A5.77,5.77,0,0,0,319.26,229.57Z" style="fill:#fff"/><path d="M348.74,226.11c1.66-.13,2.56.64,2.69,1.66a2.83,2.83,0,0,1-2.56,3.2,3.12,3.12,0,0,1-2.69-2.56A2.74,2.74,0,0,1,348.74,226.11Zm-1.41,101.24c0-5.12-.13-10.88-.26-15.61a130.4,130.4,0,0,1,.77-15.36,141.42,141.42,0,0,0,.51-22.14c-.38-5.89,0-13.06-.38-18.94-.26-4.22.13-10.62-.9-16.25a2.21,2.21,0,0,1,.13-1.28,2.09,2.09,0,0,1,2.94-.64,4.15,4.15,0,0,1,1.28,2.3,23.42,23.42,0,0,1,.26,4.22l.38,16.9c.26,8.32.38,18.94.26,25.73-.13,5.76-.77,11.39-1,16.25-.13,2.56,0,5.12,0,9.6,0,3.58.38,8.32.51,11.9a15.5,15.5,0,0,1-.13,2.43,1.82,1.82,0,0,1-2.56,1.66A10.8,10.8,0,0,1,347.34,327.35Z" style="fill:#fff"/><path d="M366.66,302.78c-.38-7.55-.64-16.64-1.15-25.6-.13-4.35-.51-8.7-.77-13.06a20.93,20.93,0,0,0-.26-2.82,37.58,37.58,0,0,1-.38-5.25c.51-4.86,1-9.6,1.79-14.46a32.22,32.22,0,0,1,4.74-11.14,11.33,11.33,0,0,1,4.86-4.1c.64-.26,1.41,0,1.66-.51,1.92-2.3,4-1.41,6.14-.77a30.45,30.45,0,0,1,7.29,3.07c4.48,2.94,6.4,7.42,6.53,12.8.26,9.73.26,19.33.26,28.93.13,10.37.26,20.73,0,31a91.18,91.18,0,0,1-2.43,18.69c-1.54,6-7,10.62-12.67,10.11-4.35-.51-8.32-1.79-11.65-5a11.46,11.46,0,0,1-4-8.83ZM393,245.06c.13-1.54,0-3.2,0-4.74a9.35,9.35,0,0,0-3.84-7.81,37.29,37.29,0,0,0-5.76-3.33,2.48,2.48,0,0,0-1.66,0c-1.28.38-2.56,1-3.71,1.41a7.25,7.25,0,0,0-4.35,2.94,18.11,18.11,0,0,0-3.58,8.19c-1.54,7-2.82,14.21-1.41,21.5.13.9,0,1.92.13,2.82.26,6.14.64,12.29,1,18.43s.77,12.16.77,18.43c.13,3.84,0,7.55,0,11.39,0,4.74,2.43,7.55,6,9.21a19.82,19.82,0,0,0,6,1.54c1.66.26,3.33.13,4.48-1.15,2.56-2.69,4.61-5.63,5-9.47.51-5.76,1.92-11.39,1.41-17.28a4.8,4.8,0,0,1-.13-1.41c0-5.63.77-11.26,0-16.89V265.79c.13-4.1.26-8.32.13-12.54C393.54,250.69,393.16,247.87,393,245.06Z" style="fill:#fff"/><path d="M415.17,242.75c.13,3.46,0,6.66.38,10a104.85,104.85,0,0,1,.26,16.77c-.13,6.14-.13,12.42-.77,18.56-1.15,11.52-.51,22.91-.26,34.43,0,.77.26,1.54.26,2.3a3.4,3.4,0,0,1-1.15,2.82c-.9.51-1.79.26-2.69.51a12.79,12.79,0,0,1-.51-2.56c-.13-8.06-.13-16.38-.13-24.45a42.31,42.31,0,0,1,.51-7c.64-5.63.77-11.13.9-16.77.13-4.35.38-8.58.51-12.93.13-8.83-1.15-17.53-1.79-26.24-.26-3.46-.26-7-.38-10.5a1.75,1.75,0,0,1,1.41-1.66l2.69-.38c.38.77.9,1.15.9,1.79,2.56,8.83,5.38,17.79,6.91,26.88,1.28,7.17,2.82,14.33,4.74,21.37,1.54,5.76,2.56,11.78,3.84,17.66a.47.47,0,0,0,.13.38c1.54,5.76,2.94,11.65,4,17.53a18.87,18.87,0,0,0,1,3.58c.9-.64.64-1.54.64-2.18.26-4,.51-7.94.64-11.9.26-4.48.26-9,.38-13.31,0-2,.26-4,.26-5.76.13-5.89.26-11.78.26-17.66,0-5.38-.51-10.62-.38-15.87.13-6.27.13-12.42-.26-18.69a6.77,6.77,0,0,1,.13-2.3,4.27,4.27,0,0,1,1.66-1.41,2.25,2.25,0,0,1,1.66,1.15,4.62,4.62,0,0,1,.38,2.3c0,4.35.13,8.58,0,12.93,0,6.4-.38,12.8-.13,19.07.64,8.06.13,16-.26,23.94V297c0,1.54-.13,2.94-.26,4.35l-.51,7.17a65.42,65.42,0,0,1-.64,10,23.14,23.14,0,0,0,.13,6.66,9.2,9.2,0,0,1-.64,4.61c-3.07.13-3.58,0-4.22-2.82-1.66-7.42-3.2-14.85-4.86-22.14-.51-2.82-1.54-5.5-2.18-8.32-2.94-13.44-5.63-26.88-8.58-40.32-.77-3.84-1.54-7.55-2.43-11.13C416.45,244.29,416.32,243,415.17,242.75Z" style="fill:#fff"/><line x1="139.36" y1="204.09" x2="373.63" y2="204.09" style="fill:#1e1e1c"/><path d="M139.36,204c4,0,4,.18,8.08.18s4-.48,8.08-.48,4-.14,8.08-.14,4,1,8.08,1h8.07c4,0,4-.53,8.07-.53s4-.15,8.08-.15,4-.13,8.07-.13,4,.67,8.08.67,4-.72,8.08-.72,4,0,8.08,0,4,.55,8.08.55,4,.3,8.08.3,4-.45,8.08-.45,4,.19,8.08.19,4-.47,8.08-.47,4-.08,8.08-.08,4,.47,8.08.47,4,.35,8.08.35,4-.2,8.08-.2,4-.61,8.08-.61,4,.81,8.08.81,4-.54,8.08-.54,4,.5,8.08.5,4-.36,8.08-.36,4-.15,8.08-.15,4-.08,8.08-.08,4-.09,8.09-.09,4,.07,8.09.07" style="fill:none;stroke:#fff;stroke-linecap:round;stroke-linejoin:round;stroke-width:4px"/><path d="M254.12,209.52a6.09,6.09,0,0,1-5.69-5.56,5.73,5.73,0,0,1,5.43-5.3l.48,0a5,5,0,0,1,5.31,4.31v.14a6.18,6.18,0,0,1-1.6,4.67A5.35,5.35,0,0,1,254.12,209.52Z" style="fill:#fff"/><path d="M254.34,201.65c1.44,0,2.22.73,2.33,1.68a2.83,2.83,0,0,1-2.56,3.2,3.12,3.12,0,0,1-2.69-2.56,2.74,2.74,0,0,1,2.56-2.3h.35m0-6-.62,0a8.66,8.66,0,0,0-8.3,8.3c0,4.4,4.22,8.56,8.69,8.56a8.32,8.32,0,0,0,6.15-2.72,9.19,9.19,0,0,0,2.39-6.94v-.14l0-.14a8,8,0,0,0-8.29-6.93Z" style="fill:#d93542"/><line x1="70.66" y1="349.37" x2="438.38" y2="349.37" style="fill:#1e1e1c"/><path d="M70.66,349c4,0,4,.51,8,.51s4,.3,8,.3,4-.28,8-.28,4,.36,8,.36,4,0,8,0,4-.22,8-.22,4,0,8,0,4-.28,8-.28,4,0,8,0,4,.37,8,.37,4-.72,8-.72,4,.69,8,.69,4-.57,8-.57,4,.54,8,.54,4-.44,8-.44,4,.55,8,.55,4-.42,8-.42,4,.43,8,.43,4-.36,8-.36,4-.19,8-.19,4-.08,8-.08,4,.16,8,.16,4-.28,8-.28,4,.68,8,.68,4-.33,8-.33,4-.05,8-.05,4,.57,8,.57,4-.55,8-.55,4-.09,8-.09,4-.07,8-.07,4,.11,8,.11,4,.19,8,.19,4,.26,8,.26,4,0,8,0,4,.07,8,.07,4-.52,8-.52,4-.32,8-.32,4,.83,8,.83,4-.72,8-.72,4,.71,8,.71,4-.07,8-.07,4-.32,8-.32,4,.27,8,.27,4-.2,8-.2,4,.45,8,.45,4-.92,8-.92" style="fill:none;stroke:#fff;stroke-linecap:round;stroke-linejoin:round;stroke-width:4px"/><path d="M255.12,354.81a6.09,6.09,0,0,1-5.69-5.56,5.73,5.73,0,0,1,5.43-5.3l.48,0a5,5,0,0,1,5.31,4.31v.14a6.18,6.18,0,0,1-1.6,4.67A5.35,5.35,0,0,1,255.12,354.81Z" style="fill:#fff"/><path d="M255.34,346.93c1.44,0,2.22.73,2.33,1.68a2.83,2.83,0,0,1-2.56,3.2,3.12,3.12,0,0,1-2.69-2.56,2.74,2.74,0,0,1,2.56-2.3h.35m0-6-.62,0a8.66,8.66,0,0,0-8.3,8.3c0,4.4,4.22,8.56,8.69,8.56a8.32,8.32,0,0,0,6.15-2.72,9.19,9.19,0,0,0,2.39-6.94V348l0-.14a8,8,0,0,0-8.29-6.93Z" style="fill:#d93542"/><path d="M112,354.81a6.09,6.09,0,0,1-5.69-5.56,5.73,5.73,0,0,1,5.43-5.3l.48,0a5,5,0,0,1,5.31,4.31v.14a6.19,6.19,0,0,1-1.6,4.67A5.35,5.35,0,0,1,112,354.81Z" style="fill:#fff"/><path d="M112.18,346.93c1.44,0,2.22.73,2.33,1.68a2.83,2.83,0,0,1-2.56,3.2,3.12,3.12,0,0,1-2.69-2.56,2.74,2.74,0,0,1,2.56-2.3h.35m0-6-.62,0a8.66,8.66,0,0,0-8.3,8.3c0,4.4,4.22,8.56,8.69,8.56a8.32,8.32,0,0,0,6.15-2.72,9.19,9.19,0,0,0,2.39-6.94V348l0-.14a8,8,0,0,0-8.29-6.93Z" style="fill:#d93542"/><path d="M397.42,354.81a6.09,6.09,0,0,1-5.69-5.56,5.73,5.73,0,0,1,5.43-5.3l.48,0a5,5,0,0,1,5.31,4.31v.14a6.18,6.18,0,0,1-1.6,4.67A5.35,5.35,0,0,1,397.42,354.81Z" style="fill:#fff"/><path d="M397.65,346.93c1.44,0,2.22.73,2.33,1.68a2.83,2.83,0,0,1-2.56,3.2,3.12,3.12,0,0,1-2.69-2.56,2.74,2.74,0,0,1,2.56-2.3h.35m0-6-.62,0a8.66,8.66,0,0,0-8.3,8.3c0,4.4,4.22,8.56,8.69,8.56a8.32,8.32,0,0,0,6.15-2.72,9.19,9.19,0,0,0,2.39-6.94V348l0-.14a8,8,0,0,0-8.29-6.93Z" style="fill:#d93542"/></g></g></svg>