<svg xmlns="http://www.w3.org/2000/svg" viewBox="0 0 114.96 92.87"><title>Asset 2</title><g id="Layer_2" data-name="Layer 2"><g id="Layer_1-2" data-name="Layer 1"><path d="M58.31,82.87C42.38,69.74,19.6,60.22,11.22,36.82s28.34-38.48,47-10.59c5-9.8,30.69-27.53,43.6-6.1C117.32,45.85,71.2,70.82,58.31,82.87Z" style="fill:#d93542"/><path d="M58.31,82.87C42.38,69.74,19.6,60.22,11.22,36.82s28.34-38.48,47-10.59c5-9.8,30.69-27.53,43.6-6.1C117.32,45.85,71.2,70.82,58.31,82.87Z" style="fill:none;stroke:#d93542;stroke-linecap:round;stroke-linejoin:round;stroke-width:20px"/><path d="M58.29,83.12c-2.11-1.74-4.23-3.83-6.53-5.48S46.83,75,44.5,73.4,40.35,69.62,38.07,68,33.3,65,31.13,63.28s-3.84-4.06-5.84-6-4.54-3.4-6.28-5.61a54.27,54.27,0,0,1-4.47-7.13,50.49,50.49,0,0,1-3.42-7.66,19,19,0,0,1-.75-7.72,16.67,16.67,0,0,1,1.81-7.51,19.18,19.18,0,0,1,5.31-5.71,23.61,23.61,0,0,1,6.8-4c2.42-.76,5.17-.4,7.86-.42,2.54,0,5.23-.33,7.84.41a30.2,30.2,0,0,1,7.1,3.41,33.25,33.25,0,0,1,6,5,39.8,39.8,0,0,1,5.09,6.08A23.93,23.93,0,0,1,62.65,20a41.55,41.55,0,0,1,6-4.69,38.72,38.72,0,0,1,6.86-3.27,27.85,27.85,0,0,1,7.32-1.8,18.92,18.92,0,0,1,7.38.85c2.31.66,4.75,1.3,6.82,3.07a23.71,23.71,0,0,1,5.07,5.73,22.26,22.26,0,0,1,3,7.88,21,21,0,0,1-.86,8.31,30,30,0,0,1-2.75,7.9c-1.33,2.31-3.5,4.23-5.34,6.45a80.23,80.23,0,0,1-5.82,5.92c-2,1.92-4,3.75-6.16,5.55s-3.83,4.15-6,5.83S73.53,71,71.39,72.59c-2.37,1.78-4.72,3.31-6.76,4.87A80.17,80.17,0,0,0,58.29,83.12Z" style="fill:none;stroke:#fff;stroke-linecap:round;stroke-linejoin:round;stroke-width:3.5px"/></g></g></svg>