<svg xmlns="http://www.w3.org/2000/svg" viewBox="0 0 351.98 351.98"><title>sun</title><g id="Layer_2" data-name="Layer 2"><g id="Layer_1-2" data-name="Layer 1"><path d="M177.75,298c1.28-.14,2.57-.23,3.83-.31s2.51-.23,3.71-.33,2.36-.19,3.44-.32,2.09-.31,3-.47c6.4-1.17,14.24-2.49,20.34-4.79,8-3.08,15-5.67,22.66-9.14,2.42-1.18,4.66-2.15,7-3.5a61.63,61.63,0,0,0,7.76-5.12,157.52,157.52,0,0,0,12.19-10.84,2,2,0,0,0,.56-.54l.2-.19v0c3.7-5,8.38-10.14,11-14,3.59-5.41,8.07-12,10.63-17.94,3.4-7.9,6.38-14.69,9.21-22.57.48-1.26.86-2.48,1.24-3.7s.76-2.43,1.13-3.72a63.26,63.26,0,0,0,1.66-9.13A153.33,153.33,0,0,0,298,176h-4.13v.3c0,.75-.19,3.21-.17,4,.08,1.7,0,3.46-.1,5.18l-.13,2.54-.28,2.39-.39,3.23c-.13,1-.3,1.83-.43,2.64a42.89,42.89,0,0,1-.86,4.3A157,157,0,0,1,285.68,217c-1.36,3.35-3.1,7.64-5.29,12a142.25,142.25,0,0,1-7,12.49s-.15.24-.43.65l-1.15,1.69-1.63,2.39-2,2.65c-1.32,1.83-2.8,3.55-3.88,4.85-.54.65-1,1.2-1.31,1.57l-.52.57a27.24,27.24,0,0,0-2.94,3.45c-.35.48-1.14.89-1.55,1.39s-.86.76-1.25,1.12a95.34,95.34,0,0,1-9.43,8.65c-1.93,1.45-3.48,2.53-4.8,3.51s-2.52,1.65-3.71,2.35a143.77,143.77,0,0,1-15.85,7.25l-1.29.56-1.39.53-3,1.16c-1,.43-2.12.76-3.23,1.15l-3.39,1.16a140.78,140.78,0,0,1-13.89,3.61l-2.77.56-6.15.91c-2.25.21-4.51.46-6.2.58l-2.83.13-1.23,0c-.54,0-1.07.05-1.61.1v4A16.64,16.64,0,0,0,177.75,298Z" style="fill:#fff"/><path d="M54,177.75c.14,1.28.23,2.57.31,3.83s.23,2.51.33,3.71.19,2.36.32,3.44.31,2.09.47,3c1.17,6.4,2.49,14.24,4.79,20.34,3.08,8,5.67,15,9.14,22.66,1.18,2.42,2.15,4.66,3.5,7A61.64,61.64,0,0,0,78,249.48,157.51,157.51,0,0,0,88.8,261.67a2,2,0,0,0,.54.56l.19.2h0c5,3.7,10.14,8.38,14,11,5.41,3.59,12,8.07,17.94,10.63,7.9,3.4,14.69,6.38,22.57,9.21,1.26.48,2.48.86,3.7,1.24s2.43.76,3.72,1.13a63.27,63.27,0,0,0,9.13,1.66A153.35,153.35,0,0,0,176,298v-4.13h-.3c-.75,0-3.21-.19-4-.17-1.7.08-3.46,0-5.18-.1l-2.54-.13-2.39-.28-3.23-.39c-1-.13-1.83-.3-2.64-.43a42.9,42.9,0,0,1-4.3-.86A157,157,0,0,1,135,285.68c-3.35-1.36-7.64-3.1-12-5.29a142.25,142.25,0,0,1-12.49-7s-.24-.15-.65-.43l-1.69-1.15-2.39-1.63-2.65-2c-1.83-1.32-3.55-2.8-4.85-3.88-.65-.54-1.2-1-1.57-1.31l-.57-.52a27.25,27.25,0,0,0-3.45-2.94c-.48-.35-.89-1.14-1.39-1.55s-.76-.86-1.12-1.25a95.33,95.33,0,0,1-8.64-9.43c-1.45-1.93-2.53-3.48-3.51-4.8s-1.65-2.52-2.35-3.71a143.79,143.79,0,0,1-7.25-15.85l-.56-1.29-.53-1.39-1.16-3c-.43-1-.76-2.12-1.15-3.23l-1.16-3.39a140.78,140.78,0,0,1-3.61-13.89L59.7,194l-.91-6.15c-.21-2.25-.46-4.51-.58-6.2l-.13-2.83,0-1.23c0-.54-.05-1.07-.1-1.61h-4A16.63,16.63,0,0,0,54,177.75Z" style="fill:#fff"/><path d="M174.22,54c-1.28.14-2.57.23-3.83.31s-2.51.23-3.71.33-2.36.19-3.44.32-2.09.31-3,.47c-6.4,1.17-14.24,2.49-20.34,4.79-8,3.08-15,5.67-22.66,9.14-2.42,1.18-4.66,2.15-7,3.5A61.64,61.64,0,0,0,102.5,78,157.55,157.55,0,0,0,90.31,88.8a2,2,0,0,0-.56.54l-.2.19v0c-3.7,5-8.38,10.14-11,14C75,109,70.52,115.51,68,121.5c-3.4,7.9-6.38,14.69-9.21,22.57-.48,1.26-.86,2.48-1.24,3.7s-.76,2.43-1.13,3.72a63.26,63.26,0,0,0-1.66,9.13A153.33,153.33,0,0,0,54,176h4.13v-.3c0-.75.19-3.21.17-4-.08-1.7,0-3.46.1-5.18l.13-2.54.28-2.39.39-3.23c.13-1,.3-1.83.43-2.64a42.9,42.9,0,0,1,.86-4.3A157,157,0,0,1,66.3,135c1.36-3.35,3.1-7.64,5.29-12a142.27,142.27,0,0,1,7-12.49s.15-.24.43-.65l1.15-1.69,1.63-2.39,2-2.65c1.32-1.83,2.8-3.55,3.88-4.85.54-.65,1-1.2,1.31-1.57l.52-.57a27.24,27.24,0,0,0,2.94-3.45c.35-.48,1.14-.89,1.55-1.39s.86-.76,1.25-1.12a95.34,95.34,0,0,1,9.43-8.64c1.93-1.45,3.48-2.53,4.8-3.51s2.52-1.65,3.71-2.35A143.79,143.79,0,0,1,129,68.44l1.29-.56,1.39-.53,3-1.16c1-.43,2.12-.76,3.23-1.15l3.39-1.16a140.78,140.78,0,0,1,13.89-3.61L158,59.7l6.15-.91c2.25-.21,4.51-.46,6.2-.58l2.83-.13,1.23,0c.54,0,1.07-.05,1.61-.1v-4A16.64,16.64,0,0,0,174.22,54Z" style="fill:#fff"/><path d="M298,174.22c-.14-1.28-.23-2.57-.31-3.83s-.23-2.51-.33-3.71-.19-2.36-.32-3.44-.31-2.09-.47-3c-1.17-6.4-2.49-14.24-4.79-20.34-3.08-8-5.67-15-9.14-22.66-1.18-2.42-2.15-4.66-3.5-7A61.64,61.64,0,0,0,274,102.5a157.53,157.53,0,0,0-10.84-12.19,2,2,0,0,0-.54-.56l-.19-.2h0c-5-3.7-10.14-8.38-14-11C243,75,236.46,70.52,230.47,68c-7.9-3.4-14.69-6.38-22.57-9.21-1.26-.48-2.48-.86-3.7-1.24s-2.43-.76-3.72-1.13a63.27,63.27,0,0,0-9.13-1.66A153.35,153.35,0,0,0,176,54v4.13h.3c.75,0,3.21.19,4,.17,1.7-.08,3.46,0,5.18.1l2.54.13,2.39.28,3.23.39c1,.13,1.83.3,2.64.43a42.86,42.86,0,0,1,4.3.86A157,157,0,0,1,217,66.3c3.35,1.36,7.64,3.1,12,5.29a142.28,142.28,0,0,1,12.49,7s.24.15.65.43l1.69,1.15,2.39,1.63,2.65,2c1.83,1.32,3.55,2.8,4.85,3.88.65.54,1.2,1,1.57,1.31l.57.52a27.24,27.24,0,0,0,3.45,2.94c.48.35.89,1.14,1.39,1.55s.76.86,1.12,1.24a95.33,95.33,0,0,1,8.64,9.43c1.45,1.93,2.53,3.48,3.51,4.8s1.65,2.52,2.35,3.71A143.78,143.78,0,0,1,283.53,129l.56,1.29.53,1.39,1.16,3c.43,1,.76,2.12,1.15,3.23l1.16,3.39a140.78,140.78,0,0,1,3.61,13.89l.56,2.77.91,6.15c.21,2.25.46,4.51.58,6.2l.13,2.83,0,1.23c0,.54.05,1.07.1,1.61h4A16.63,16.63,0,0,0,298,174.22Z" style="fill:#fff"/><path d="M176.19,30.48c0-3.56-.62-3.56-.62-7.11s.56-3.56.56-7.12-.08-3.56-.08-7.12-.1-3.56-.1-7.12" style="fill:none;stroke:#fff;stroke-linecap:round;stroke-linejoin:round;stroke-width:4px"/><path d="M137.87,35.56c-.92-3.44-.31-3.6-1.23-7s-.89-3.45-1.81-6.88-.95-3.43-1.87-6.87-1-3.41-2-6.85" style="fill:none;stroke:#fff;stroke-linecap:round;stroke-linejoin:round;stroke-width:4px"/><path d="M103,50.11c-1.78-3.08-1.51-3.23-3.29-6.31s-1.92-3-3.7-6.08-1.94-3-3.73-6.08-1.82-3.06-3.6-6.14" style="fill:none;stroke:#fff;stroke-linecap:round;stroke-linejoin:round;stroke-width:4px"/><path d="M73.23,73c-2.51-2.51-2.79-2.24-5.3-4.76l-5-5c-2.52-2.52-2.63-2.41-5.15-4.93s-2.07-3-4.59-5.48" style="fill:none;stroke:#fff;stroke-linecap:round;stroke-linejoin:round;stroke-width:4px"/><path d="M49.89,103.39c-3.08-1.78-2.85-2.17-5.93-3.95s-3.25-1.49-6.33-3.27-3.22-1.55-6.3-3.33-2.81-2.26-5.9-4" style="fill:none;stroke:#fff;stroke-linecap:round;stroke-linejoin:round;stroke-width:4px"/><path d="M35.43,138.37c-3.44-.92-3.53-.58-7-1.5s-3.24-1.65-6.68-2.57-3.57-.44-7-1.36S11.44,131.6,8,130.68" style="fill:none;stroke:#fff;stroke-linecap:round;stroke-linejoin:round;stroke-width:4px"/><path d="M30.48,176c-3.56,0-3.56.36-7.11.36s-3.56-.14-7.12-.14S12.69,176,9.12,176s-3.56.26-7.12.26" style="fill:none;stroke:#fff;stroke-linecap:round;stroke-linejoin:round;stroke-width:4px"/><path d="M35.32,213.2c-3.44.92-3.42,1-6.86,1.88s-3.29,1.47-6.73,2.4-3.42,1-6.86,1.94-3.55.52-7,1.45" style="fill:none;stroke:#fff;stroke-linecap:round;stroke-linejoin:round;stroke-width:4px"/><path d="M49.85,248.53c-3.08,1.78-3.16,1.63-6.24,3.41s-2.73,2.4-5.81,4.17-3,2-6.07,3.73-3.56,1-6.65,2.73" style="fill:none;stroke:#fff;stroke-linecap:round;stroke-linejoin:round;stroke-width:4px"/><path d="M103.16,302c-1.78,3.08-1.28,3.37-3.06,6.45s-2,3-3.75,6.05-2.07,2.92-3.85,6-1.94,3-3.72,6.08" style="fill:none;stroke:#fff;stroke-linecap:round;stroke-linejoin:round;stroke-width:4px"/><path d="M75.15,280.82c-2.51,2.51-2.11,2.92-4.62,5.44s-2.67,2.36-5.19,4.88-2.75,2.28-5.27,4.8-2.65,2.39-5.16,4.91" style="fill:none;stroke:#fff;stroke-linecap:round;stroke-linejoin:round;stroke-width:4px"/><path d="M138.09,316.48c-.92,3.44-.33,3.59-1.25,7s-1.75,3.22-2.67,6.66-.33,3.6-1.25,7-1.25,3.35-2.17,6.79" style="fill:none;stroke:#fff;stroke-linecap:round;stroke-linejoin:round;stroke-width:4px"/><path d="M175.66,321.5c0,3.56.24,3.56.24,7.11s.25,3.56.25,7.12-.21,3.56-.21,7.12.19,3.56.19,7.12" style="fill:none;stroke:#fff;stroke-linecap:round;stroke-linejoin:round;stroke-width:4px"/><path d="M213.27,316.64c.92,3.44,1.66,3.24,2.58,6.67s.23,3.62,1.15,7.06,1.15,3.38,2.08,6.82.66,3.51,1.59,7" style="fill:none;stroke:#fff;stroke-linecap:round;stroke-linejoin:round;stroke-width:4px"/><path d="M249.16,301.76c1.78,3.08,1.79,3.07,3.57,6.15s1.3,3.36,3.08,6.44,2.15,2.87,3.93,6,1.48,3.26,3.26,6.35" style="fill:none;stroke:#fff;stroke-linecap:round;stroke-linejoin:round;stroke-width:4px"/><path d="M302.14,248.51c3.08,1.78,2.73,2.38,5.81,4.16s3.37,1.28,6.46,3.06,3,1.87,6.12,3.65,3.16,1.65,6.25,3.43" style="fill:none;stroke:#fff;stroke-linecap:round;stroke-linejoin:round;stroke-width:4px"/><path d="M278.41,276.73c2.68,2.33,2.23,2.86,4.91,5.19s3.07,1.9,5.75,4.23,2.62,2.41,5.31,4.75,2.79,2.22,5.48,4.56" style="fill:none;stroke:#fff;stroke-linecap:round;stroke-linejoin:round;stroke-width:4px"/><path d="M316.45,214c3.44.92,3.44.89,6.88,1.81s3.55.5,7,1.43,3.28,1.5,6.73,2.42,3.61.28,7.05,1.2" style="fill:none;stroke:#fff;stroke-linecap:round;stroke-linejoin:round;stroke-width:4px"/><path d="M321.5,175.5c3.56,0,3.56.35,7.11.35s3.56-.32,7.12-.32,3.56.47,7.12.47,3.56.4,7.12.4" style="fill:none;stroke:#fff;stroke-linecap:round;stroke-linejoin:round;stroke-width:4px"/><path d="M316.66,138.79c3.44-.92,3.4-1.07,6.83-2s3.35-1.26,6.79-2.18,3.47-.82,6.91-1.74,3.51-.66,6.95-1.59" style="fill:none;stroke:#fff;stroke-linecap:round;stroke-linejoin:round;stroke-width:4px"/><path d="M278.75,73c2.51-2.51,2.41-2.62,4.92-5.14s2.43-2.6,4.95-5.12,2.73-2.31,5.25-4.83l5-5" style="fill:none;stroke:#fff;stroke-linecap:round;stroke-linejoin:round;stroke-width:4px"/><path d="M300.37,105.53c3.18-1.59,3.11-1.73,6.29-3.31s3.13-1.7,6.32-3.29,3.32-1.32,6.51-2.91l6.37-3.19" style="fill:none;stroke:#fff;stroke-linecap:round;stroke-linejoin:round;stroke-width:4px"/><path d="M249,50.14c1.78-3.08,1.46-3.26,3.24-6.34s1.85-3,3.63-6.13,1.82-3.06,3.6-6.15,1.89-3,3.67-6.11" style="fill:none;stroke:#fff;stroke-linecap:round;stroke-linejoin:round;stroke-width:4px"/><path d="M213.84,35.49c.92-3.44.33-3.59,1.25-7s1.46-3.29,2.38-6.73.85-3.46,1.77-6.9.82-3.47,1.74-6.91" style="fill:none;stroke:#fff;stroke-linecap:round;stroke-linejoin:round;stroke-width:4px"/></g></g></svg>